<?xml version="1.0" encoding="UTF-8"?><svg id="Layer_1" xmlns="http://www.w3.org/2000/svg" xmlns:xlink="http://www.w3.org/1999/xlink" viewBox="0 0 3195.18 2000"><defs><style>.cls-1{fill:#fc4963;}.cls-2{fill:#f8faff;}.cls-3{fill:#683d46;}.cls-4{fill:#f07162;}.cls-5{fill:#f0fcff;}.cls-6{fill:#fff;}.cls-7{fill:#f75553;}.cls-8{fill:#fd7583;}.cls-9{fill:#fbfdfc;}.cls-10{fill:#fec786;}.cls-11{fill:#fe9f73;}.cls-12{fill:#6b6b6b;}.cls-13{fill:#7fc6a6;}.cls-14{fill:#d7e4f7;}.cls-15{fill:#21111d;}.cls-16{fill:#2b0e18;}.cls-17{fill:#49263e;}.cls-18{fill:#3aa1c9;}.cls-19{fill:#4c222e;}.cls-20{fill:#472a31;}.cls-21{fill:#53326d;}.cls-22{fill:#4cb7d8;}.cls-23{fill:url(#Gradiente_sem_nome_17);}.cls-24{fill:url(#Gradiente_sem_nome_17-2);}.cls-25{fill:url(#Gradiente_sem_nome_17-3);}.cls-26{opacity:.5;}.cls-27{isolation:isolate;}</style><linearGradient id="Gradiente_sem_nome_17" x1="2555.91" y1="780.57" x2="2699.47" y2="780.57" gradientTransform="matrix(1, 0, 0, 1, 0, 0)" gradientUnits="userSpaceOnUse"><stop offset="0" stop-color="#994540"/><stop offset=".99" stop-color="#772438"/></linearGradient><linearGradient id="Gradiente_sem_nome_17-2" x1="2500.17" y1="730.06" x2="2565.58" y2="730.06" xlink:href="#Gradiente_sem_nome_17"/><linearGradient id="Gradiente_sem_nome_17-3" x1="2525.11" y1="745.9" x2="2617.77" y2="745.9" xlink:href="#Gradiente_sem_nome_17"/></defs><rect class="cls-6" x="0" width="3195.18" height="2000"/><g><path class="cls-2" d="M857.73,1877.92l-397.9-4.18s-290.57-291.13-231.14-794.05C296.24,508.01,841.75,172.01,1288.48,153.36c472.86-19.75,452.16,159.12,971.65,198.02,242.86,18.19,543.46,188.79,643.95,437.54,129.54,320.65,92.33,696.3-212.33,1089H857.73Z"/><g><rect class="cls-5" x="827.64" y="511.49" width="177.34" height="1364.37" transform="translate(1832.61 2387.34) rotate(180)"/><rect class="cls-5" x="1075.3" y="922.27" width="177.34" height="953.58" transform="translate(2327.94 2798.13) rotate(180)"/><rect class="cls-5" x="576.41" y="808.77" width="177.34" height="1067.09" transform="translate(1330.15 2684.62) rotate(180)"/><rect class="cls-5" x="1322.97" y="758.76" width="177.34" height="1117.1" transform="translate(2823.28 2634.61) rotate(180)"/><rect class="cls-5" x="1570.63" y="1089.97" width="177.34" height="785.88" transform="translate(3318.61 2965.83) rotate(180)"/><g><rect class="cls-22" x="827.64" y="819.98" width="177.34" height="1055.87" transform="translate(1832.61 2695.83) rotate(180)"/><rect class="cls-13" x="1075.3" y="1142.05" width="177.34" height="733.81" transform="translate(2327.94 3017.9) rotate(180)"/><rect class="cls-13" x="576.41" y="1048.74" width="177.34" height="827.11" transform="translate(1330.15 2924.6) rotate(180)"/><rect class="cls-22" x="1322.97" y="1016.22" width="177.34" height="859.64" transform="translate(2823.28 2892.07) rotate(180)"/><rect class="cls-13" x="1570.63" y="1271.1" width="177.34" height="604.76" transform="translate(3318.61 3146.95) rotate(180)"/></g><g><polygon class="cls-1" points="1777.91 1721.08 1818.19 1700.22 1719.62 1510.9 1654.18 1563.93 1521.45 1311.13 1356.85 1489.66 1058.21 834.14 890.91 1101.38 587.23 629.43 549.09 653.99 891.46 1185.99 1051.9 929.72 1343.88 1570.64 1511.19 1389.18 1639.74 1634.02 1704.95 1581.17 1777.91 1721.08"/><polygon class="cls-1" points="1835.18 1635.47 1792 1694.33 1719.65 1704.12 1858.82 1806.69 1835.18 1635.47"/></g></g><path class="cls-6" d="M2453.13,616.88c27.05-1.13,90.51-3.11,146.08,.13,22.99,1.34,41.69-11.6,39.86-27.82-.75-6.64-4.75-14.36-14.19-23.1-36.33-33.66-92.07-1.42-90.12,15.69,0,0-13.9-25.75-49.37-21.2-35.47,4.55-19.74,41.99-19.74,41.99,0,0-11.71-1.71-19.41,2.16-7.57,3.81-2.61,12.55,6.89,12.15Z"/><path class="cls-6" d="M324.16,998.74c25.16-1.34,84.19-3.84,135.9-1.23,21.39,1.08,38.74-11.57,36.96-27.2-.73-6.4-4.48-13.81-13.29-22.15-33.93-32.13-85.66-.52-83.77,15.96,0,0-13.04-24.7-46.02-19.99-32.98,4.71-18.2,40.69-18.2,40.69,0,0-10.9-1.55-18.05,2.26-7.03,3.75-2.38,12.12,6.46,11.66Z"/><path class="cls-6" d="M1518.94,451.49c57.6-3.73,198.17-10.99,283.17,.4,12.28,1.65,20.16-11.49,11.95-20.09-5.92-6.2-16.31-11.4-34.45-12.11,0,0,15.38-71.88-60.85-78.55-78.34-6.85-77.96,68.73-77.96,68.73,0,0-46.48-39.57-67.7,9.52,0,0-48.66-19.24-70.1,4.76-10.1,11.3-.1,28.38,15.94,27.34Z"/><g><g><path class="cls-15" d="M2266.68,669.33s19.26,9.94,9.63,48.81l-7.29-3.76,2.46-20.65-4.8-24.41Z"/><path class="cls-11" d="M2199.18,693.44v56.96s-.8,19.26,15.95,21.66l-2.46,28.37c-1.16,9.55,3.85,16.01,12.97,18.92,4.46,1.42,9.78,2.46,15.81,2.46,19.14,0,29.5-14.44,31.09-21.66s-3.19-41.72-3.19-41.72l.58-16.95-2.18-65.69-68.57,17.65Z"/><path class="cls-15" d="M2245.38,721.93c.2,0,.4-.07,.55-.22,.32-.31,.33-.81,.02-1.13-.11-.12-11.08-11.4-21.1-3.28-.34,.28-.4,.78-.12,1.13,.28,.35,.78,.4,1.12,.12,8.88-7.2,18.54,2.71,18.95,3.14,.16,.16,.37,.25,.57,.25Z"/><path class="cls-15" d="M2212.51,717.11c.22,0,.45-.09,.6-.28,.29-.33,.25-.84-.08-1.13-.32-.28-7.93-6.83-12.74-2.68-.33,.29-.37,.79-.09,1.13,.29,.34,.79,.38,1.12,.09,3.77-3.25,10.58,2.61,10.65,2.67,.15,.13,.34,.2,.52,.2Z"/><path d="M2229.25,725.17c0,1.33,1.07,2.41,2.39,2.41s2.39-1.08,2.39-2.41-1.07-2.41-2.39-2.41-2.39,1.08-2.39,2.41Z"/><path d="M2203.83,722.76c0,1.33,1.07,2.41,2.39,2.41s2.39-1.08,2.39-2.41-1.07-2.41-2.39-2.41-2.39,1.08-2.39,2.41Z"/><ellipse class="cls-11" cx="2271.51" cy="726" rx="14.35" ry="14.44"/><path class="cls-4" d="M2272.57,734.85c2.98,0,4.97-2.25,5.63-4.51,.78-2.67-.11-5.25-2.26-6.6-3.18-1.99-6.06-.71-7.54,.27,.62-1.64,1.59-2.83,2.9-3.56,2.83-1.57,6.33-.43,6.37-.41,.21,.07,.43-.04,.5-.25,.07-.21-.04-.44-.25-.51-.16-.05-3.86-1.26-7,.47-1.81,1-3.04,2.77-3.66,5.26l-.35,1.4,1.02-1.02c.14-.14,3.56-3.48,7.59-.97,2.23,1.39,2.43,3.94,1.92,5.69-.53,1.82-2.12,3.93-4.86,3.93-.03,0-.05,0-.08,0-.22,0-.4,.18-.4,.4,0,.22,.17,.4,.39,.41h.08Z"/><path class="cls-15" d="M2196.4,741.34s-5.21,38.58,20.24,39.95c36.42,1.96,39.95-18.96,42.12-36.07l.37-35.33-1.17-10.25h0c-2.57,2.93-4.15,6.61-4.49,10.5-.75,8.47-2.62,31.29-4.72,32.3-2.97,1.43-46.67-4.82-52.34-1.1Z"/><path class="cls-4" d="M2220.82,741.4c.17,0,.32-.11,.38-.28,.07-.21-.04-.44-.25-.51l-7.99-2.66,2.52-18.93c.03-.22-.12-.42-.34-.45-.22-.04-.42,.12-.45,.34l-2.61,19.59,8.62,2.87s.08,.02,.13,.02Z"/><path class="cls-9" d="M2213.84,751.9c.18,.03,11.25,.05,11.25,.05,0,0-1.49-3.42-5.61-3.44-4.12-.02-5.64,3.4-5.64,3.4Z"/><path class="cls-15" d="M2258.03,700.3l7.21-6.56,7.46,17.92s-9.22,1.52-9.38,11.11c-.16,9.59,5.01,24.55-11.59,46.06-16.6,21.51,1.34-32.1,1.5-33.97,.16-1.86,4.81-34.55,4.81-34.55Z"/><path class="cls-15" d="M2266.68,669.33c-7.69-7.63-34.35-11.98-53.37-.51v-.02c-21.66,10.6-14.86,32.16-14.14,32.81l.28-.21c-.11,.5-.21,1-.28,1.5,0,0,.91-1.45,2.85-3.47l8.52-6.52c4.77-2.69,11.18-5,19.46-5.54,8.22-.54,15.4-.08,21.3,1.73,1.56,4.89,2.83,14.59,1,33.68-2.79,29.13,9.93-6.21,14.56-19.74,.99,2.53,1.71,5.37,2.08,8.63,0,0,13.15-27.04-2.26-42.33Z"/><path class="cls-11" d="M2199.18,709.44s-.57-11.69,0-14.25c.56-2.56,26.59-9.92,40.84-7.96,14.25,1.96-13.37,17.65-13.69,17.65s-27.14,4.56-27.14,4.56Z"/><polygon class="cls-11" points="2248.58 690.23 2262.35 677.41 2249.38 696.15 2248.58 690.23"/><path class="cls-15" d="M2248.58,665s-2.8-27.63,12.57-21.62c15.37,6.01,18.02,18.74,4.08,27.15-13.93,8.41-16.66-5.53-16.66-5.53Z"/></g><g><g><polygon class="cls-6" points="2153.7 1849.18 2233.5 1849.57 2234.19 1780.61 2154.65 1772.13 2153.7 1849.18"/><path class="cls-8" d="M2211.93,1873.31l-102.87,1.33c-.93-.12-1.69-.26-2.25-.42-9.72-2.77-6.64-8.81-6.64-8.81l48.88-30.49,.88-4.37c1.42-7.02,10.24-9.61,16.93-4.97l17.39,12.06s43.74,5.86,49.61-6.37l.04,31.54s3.46,10.01-21.98,10.49Z"/></g><path class="cls-22" d="M2329.35,1232.27s-34.34,127.08-55.45,276.27c-14.93,105.51-32.14,314.71-32.14,308.71,0,0-46.78,4.24-97.82-19.9v-300.01l30.93-361.95,154.48,96.88Z"/><path class="cls-15" d="M2241.76,1817.25h0Z"/><g><polygon class="cls-6" points="2431.43 1849.18 2351.62 1849.57 2350.94 1780.61 2430.48 1772.13 2431.43 1849.18"/><path class="cls-8" d="M2373.19,1873.31l102.87,1.33c.93-.12,1.69-.26,2.25-.42,9.72-2.77,6.64-8.81,6.64-8.81l-48.88-30.49-.88-4.37c-1.42-7.02-10.24-9.61-16.93-4.97l-17.39,12.06s-43.74,5.86-49.61-6.37l-.04,31.54s-3.46,10.01,21.98,10.49Z"/></g><path class="cls-22" d="M2255.22,1232.27s34.34,127.08,55.45,276.27c14.93,105.51,32.14,314.71,32.14,308.71,0,0,46.78,4.24,97.82-19.9v-300.01l-30.93-361.95-154.48,96.88Z"/><path class="cls-15" d="M2342.8,1817.25h0Z"/><path class="cls-11" d="M2155.32,991.79s-45.09,75.56-62.07,89.94c-16.97,14.38-205.77,15.59-205.77,15.59l-1.63-58.25,153.35-25.91,44.01-72.77,72.11,51.4Z"/><path class="cls-11" d="M1821.04,1101.27c-.93-2.83,.65-5.88,3.42-6.99l17.2-6.88c.54-.22,.88-.75,.85-1.33h0c-.04-.86-.86-1.46-1.69-1.25l-26.52,6.71c-3.04,.77-5.66-1.16-5.82-4.29h0c-.16-3.13,2.19-6.32,5.23-7.09l27.05-6.84c.63-.16,1.06-.74,1.02-1.39l-.02-.46c-.04-.75-.68-1.32-1.43-1.29l-30.9,1.59c-2.97,.15-5.68-1.96-6.03-4.91-.38-3.24,2.06-6.08,5.26-6.24l31.1-1.6c.75-.04,1.32-.68,1.29-1.43l-.07-1.45c-.04-.68-.57-1.23-1.25-1.28l-28.84-2.28c-2.97-.23-5.38-2.68-5.34-5.66,.05-3.26,2.83-5.76,6.03-5.5,0,0,44.16,1.12,51.08,.73l-9.77-12.87c-2.29-2.07-2.47-5.6-.41-7.89h0c2.07-2.29,5.6-2.47,7.89-.41l29.35,20.84c1.49,1.35,1.71,5.37,1.12,8.65,4.2,32.72,4.58,37.79,4.9,46.72l-35.25,.62c-10.17,.18-20.23,2.21-29.67,5.99l-2.37,.95c-2.98,1.19-6.38-.36-7.39-3.46Z"/><path class="cls-4" d="M2036.96,1012.59c0-.74,.36-1.48,1.03-1.91,1.04-.67,2.43-.37,3.1,.67l19.23,29.86c.67,1.04,.37,2.43-.67,3.1-1.04,.67-2.43,.37-3.1-.67l-19.23-29.86c-.24-.37-.35-.78-.36-1.19Z"/><g class="cls-27"><path class="cls-12" d="M2156.28,815.85l106.51-26.19c40.33-9.92,80.24-8.15,119.9,4.18,14.33,4.46,148.16,118.46,148.16,118.46,0,0-56.74,56.45-80.31,60.22l-58.23-36.09s42.15,199.7,42.15,287.09c0,0-145.03,54.11-287.53,3.73,0,0,.29-195.84,1.35-209.89l-8.51,20.17s-73.06-26.23-91.74-55.44c0,0,59.44-122.88,67.12-134.58,10.45-15.92,30.26-29.31,41.13-31.66Z"/></g><path d="M2139.44,1038.83s-.1-.03-.14-.05c-83.57-32.35-92.2-55.3-92.53-56.26l-.18-.53,.25-.5,63.96-129.07c.15-.28,13.73-26,42.7-37.2,.69-.27,1.47,.08,1.74,.77,.27,.69-.08,1.47-.77,1.74-27.99,10.82-41.14,35.66-41.27,35.91l-63.67,128.48c1.73,3.37,15.3,24.95,90.74,54.16,.69,.27,1.04,1.05,.77,1.74-.25,.64-.94,.99-1.59,.82Z"/><path d="M2139.44,1038.83c-.06-.02-.12-.04-.17-.06-.69-.28-1.01-1.07-.73-1.76l9.01-21.7c.28-.69,1.06-1.02,1.76-.73,.69,.28,1.01,1.07,.73,1.76l-9.01,21.7c-.26,.63-.94,.95-1.58,.79Z"/><path d="M2450.42,974.02l-94.43-58.53c-.63-.39-.83-1.22-.44-1.85,.39-.63,1.22-.83,1.85-.43l93.26,57.8c4.88-2.12,38.11-17.5,79.23-59.65,.52-.53,1.37-.54,1.9-.02,.53,.52,.54,1.37,.02,1.9-44.77,45.89-80.42,60.39-80.77,60.53l-.63,.25Z"/><path d="M2411.74,1036.92c-.5-.13-.9-.54-.99-1.09-.13-.77-12.64-77.33-20.09-99.22-.24-.7,.14-1.47,.84-1.71,.7-.24,1.47,.14,1.71,.84,7.52,22.1,19.68,96.5,20.2,99.65,.12,.73-.38,1.42-1.11,1.54-.19,.03-.38,.02-.56-.03Z"/><g><path d="M2187,834.66c-.2-.05-.39-.15-.56-.3-.55-.5-.6-1.35-.1-1.9l10.3-11.46c.5-.55,1.35-.6,1.9-.1,.55,.5,.6,1.35,.1,1.9l-10.3,11.46c-.35,.39-.87,.53-1.34,.4Z"/><path d="M2179.39,836.49c-.18-.05-.36-.14-.51-.26-.57-.47-.66-1.32-.18-1.89l10.18-12.36c.47-.57,1.32-.66,1.89-.18,.57,.47,.66,1.32,.18,1.89l-10.18,12.36c-.34,.42-.89,.58-1.38,.45Z"/></g><g><path d="M2400.05,1152.28c-.06-.02-.11-.03-.17-.06-.69-.28-1.01-1.07-.73-1.76l5.87-14.24c.28-.69,1.07-1.02,1.76-.73,.69,.28,1.01,1.07,.73,1.76l-5.87,14.24c-.26,.63-.94,.96-1.58,.79Z"/><path d="M2393.48,1156.55s-.08-.02-.12-.04c-.7-.25-1.06-1.02-.81-1.72l5.46-15.05c.25-.7,1.04-1.05,1.72-.81,.7,.25,1.06,1.02,.81,1.72l-5.46,15.05c-.24,.66-.94,1.02-1.61,.84Z"/></g><path d="M2280.12,844.6c-.48-.13-.87-.52-.98-1.04-.14-.73,.33-1.44,1.06-1.58,26.08-5.2,23.93-41.85,23.91-42.22-.05-.74,.51-1.38,1.25-1.43,.74-.05,1.38,.51,1.43,1.25,.03,.39,2.34,39.38-26.06,45.04-.21,.04-.41,.03-.6-.02Z"/><path class="cls-4" d="M2540.51,922.17c-.28-.69-.9-1.22-1.69-1.36-1.22-.21-2.38,.61-2.59,1.83l-6.02,35c-.21,1.22,.61,2.38,1.83,2.59,1.22,.21,2.38-.61,2.59-1.83l6.02-35c.07-.43,.02-.86-.14-1.23Z"/><path d="M2285.7,1248.67c-96.54,0-138.96-19.77-139.44-20l-.9-.43v-1l3.2-326.05c0-.86,.71-1.56,1.57-1.56h.02c.87,0,1.57,.72,1.56,1.59l-3.17,325.02c7.66,3.26,64.25,25.17,184.95,17.78,.9-.06,1.62,.61,1.67,1.48,.05,.87-.61,1.61-1.47,1.67-17.27,1.06-33.25,1.52-47.97,1.52Z"/><path d="M2341.38,1818.84l-.14-1.44c-.25-2.49-24.71-249.83-33.03-314.91-8.32-65.04-31.32-172.21-31.55-173.29-.18-.85,.36-1.69,1.21-1.87,.85-.18,1.69,.36,1.87,1.21,.23,1.08,23.26,108.38,31.6,173.55,8,62.52,30.86,292.99,32.9,313.55,9.75-.26,66.43-2.47,95.6-19.65,.75-.44,1.71-.19,2.16,.56,.44,.75,.19,1.71-.56,2.16-32.55,19.17-95.92,20.09-98.61,20.12l-1.44,.02Z"/><path d="M2244.62,1574.64c-.58,0-1.13-.32-1.41-.87-.39-.78-.07-1.72,.71-2.11l21.73-10.85c4.11-35.46,24.85-161.5,25.06-162.78,.14-.86,.95-1.44,1.81-1.3,.86,.14,1.44,.95,1.3,1.81-.21,1.29-21.27,129.31-25.13,163.47l-.1,.85-23.26,11.61c-.22,.11-.47,.17-.7,.17Z"/><path d="M2239.28,1818.85c-11.84,0-62.73-1.16-96.12-20.13-.76-.43-1.02-1.39-.59-2.15,.43-.76,1.39-1.02,2.15-.59,33.89,19.26,86.5,19.76,95.62,19.72l25.21-254.01c.08-.86,.87-1.5,1.72-1.41,.87,.09,1.5,.86,1.41,1.72l-25.49,256.79-1.39,.04c-.07,0-.96,.02-2.52,.02Z"/><path d="M2150.13,1426.42s-.09,0-.14,0c-.87-.08-1.51-.84-1.43-1.71l16.76-190.83c.08-.87,.83-1.51,1.71-1.43,.87,.08,1.51,.84,1.43,1.71l-16.76,190.83c-.07,.82-.76,1.44-1.57,1.44Z"/><path d="M2440.63,1498.92c-.81,0-1.5-.62-1.57-1.44l-22.94-268.44c-.07-.87,.57-1.63,1.43-1.7,.84-.08,1.63,.57,1.7,1.44l22.94,268.44c.07,.87-.57,1.63-1.43,1.7-.04,0-.09,0-.14,0Z"/></g><path class="cls-11" d="M2286.8,785.12s-13.15,20.03-41.26,26.5c-28.11,6.48-45.04-6.65-45.04-6.65,0,0,44.23-18.44,86.3-19.86Z"/></g><g><path class="cls-23" d="M2630.14,697.2c2.52-.13,5.1-.22,7.54,.44,5.04,1.35,8.7,5.59,12.03,9.6,5.47,6.6,11.15,13.67,12.36,22.16,1.18,8.24-1.73,17.86,3.7,24.17,2.06,2.39,5,3.81,7.81,5.25,3.91,2,7.72,4.19,11.43,6.53,2.1,1.33,4.21,2.75,5.74,4.7,2.15,2.75,2.97,6.27,3.74,9.68,1.3,5.8,2.6,11.6,3.91,17.4,.74,3.28,1.48,6.69,.79,9.99-1.41,6.81-8.29,10.95-14.8,13.4-6.51,2.45-13.71,4.3-18.28,9.54-3.76,4.31-5.07,10.2-7.74,15.26-4.09,7.75-11.43,13.48-19.55,16.79-8.12,3.31-17,4.36-25.77,4.38-2.51,0-5.08-.08-7.39-1.05-1.91-.8-3.52-2.15-5.11-3.48-13.02-10.95-26.61-22.71-32.13-38.81-1.95-5.7-2.79-11.7-3.62-17.66-2.74-19.69-5.49-39.38-8.23-59.07-.41-2.95-.82-5.92-.64-8.88,.25-4.05,1.59-7.95,2.92-11.78,2.08-6,4.16-12.01,6.7-17.83,1.57-3.6,3.39-7.21,6.28-9.87,2.89-2.66,7.1-4.2,10.84-3.01,4.05,1.3,6.98,5.52,11.22,5.8,3.31,.22,6-.99,9.35,0,2.72,.8,4.14,1.57,6.94,.7,6.83-2.13,12.67-3.97,19.94-4.34Z"/><polygon class="cls-11" points="2413.87 1852.01 2486.06 1853 2487.1 1784.91 2415.19 1775.93 2413.87 1852.01"/><g><path class="cls-18" d="M2339.69,1864.26h147.4v-29.66s-10.72-14.24-27.05-6.97c0,0-24.17,17.5-45.93-3.41l-54.58,23.43s-19.85,6.53-19.85,16.61Z"/><path class="cls-20" d="M2335.28,1864.26h151.81v10.38h-151.81c-1.1,0-1.99-.89-1.99-1.99v-6.4c0-1.1,.89-1.99,1.99-1.99Z"/><path class="cls-14" d="M2397.96,1831.16c4.95,7.72,14.87,23.24,21.19,33.11h10.05c-5.64-8.82-17.47-27.3-23.36-36.49l-7.88,3.38Z"/><path class="cls-14" d="M2403.04,1864.26h10.05c-4.59-7.17-13.54-21.16-19.88-31.06l-7.88,3.38c5.33,8.32,12.7,19.85,17.72,27.68Z"/></g><polygon class="cls-11" points="2538.16 1852.01 2610.36 1853 2611.39 1784.91 2539.48 1775.93 2538.16 1852.01"/><path class="cls-16" d="M2530.47,1262.65c-2.39,70.31-12.79,345.35-34.65,525.29-1.44,11.86-11.49,20.81-23.44,20.78-13.23-.03-31.63-1.61-52.01-7.84-9.85-3.01-16.69-11.97-16.86-22.27l-8.89-547.53c-.02-1.33,.07-2.66,.27-3.97l.42-2.7c2.29-14.9,17.76-23.88,31.84-18.48l88.18,33.87c9.41,3.61,15.49,12.78,15.15,22.85Z"/><path class="cls-19" d="M2627.43,1248.47s6,338.2-9.65,546.82c-.74,9.87-8.58,17.68-18.45,18.43-13.98,1.06-35.26,.9-59.25-5.46-8.14-2.16-14.06-9.19-14.79-17.58l-41.86-485.02-25.77-134.66,169.77,77.48Z"/><path class="cls-21" d="M2654.36,1140.83c-1.47,13.51-9.57,213.95-32.05,230.48-22.49,16.54-237.66,.65-242.67-18.89-5.01-19.54,24.19-229,24.19-229l250.53,17.41Z"/><path class="cls-21" d="M2411.4,1046.39c-2.91,.05-117.98,54.26-117.98,54.26l25.07,44.23,65.05-16.62,27.86-81.87Z"/><g class="cls-27"><path class="cls-21" d="M2624.96,846.47c-26.52-10.46-106.04-10.93-106.04-10.93,0,0-9.78,2.92-6.68,1.36-81.75,17.33-88.76,78.62-88.76,78.62l-34.14,177.58-44.59,3.94c-13.52,27.89-.39,101.41-.39,101.41l217.21,17.01s47.03,6.12,84.86-45.96c25.02-34.45,30.41-137.79,27.84-213.08,0,0,8.29-87.24-49.31-109.96Z"/></g><path class="cls-15" d="M2557.61,1090.42c-.24,.1-.52,.13-.79,.08-.74-.15-1.22-.87-1.07-1.61,.19-.97,19.53-97.87,27.09-158.69,.09-.75,.78-1.28,1.53-1.19,.75,.09,1.28,.78,1.19,1.53-7.57,60.92-26.93,157.92-27.12,158.89-.09,.46-.41,.83-.81,.99Z"/><path class="cls-15" d="M2423.56,1092.71c.22,.2,.51,.32,.83,.34,.75,.04,1.4-.53,1.44-1.29,.06-1.12,6.52-112.62,13.04-149.53,.13-.74-.37-1.45-1.11-1.58-.74-.13-1.45,.36-1.58,1.11-6.55,37.07-13.01,148.72-13.08,149.85-.03,.44,.16,.83,.46,1.1Z"/><path class="cls-15" d="M2594.01,1080.06c-.06,.02-.12,.04-.18,.06l-36.25,9.61c-.73,.19-1.48-.24-1.67-.97-.19-.73,.24-1.48,.97-1.67l36.25-9.61c.73-.19,1.48,.24,1.67,.97,.18,.67-.17,1.35-.79,1.61Z"/><path class="cls-15" d="M2358.77,1070.68c-.69,.29-1.48-.03-1.78-.71-.3-.69,.01-1.5,.7-1.8l38.94-17.09c.72-.28,1.5,.01,1.8,.7,.3,.69-.01,1.5-.7,1.8l-38.94,17.09h-.02Z"/><g><path class="cls-10" d="M2197.36,1200.06l128.02-8.42c6.08-.4,11.19-5.8,10.48-11.05l-25.5-188.53c-.52-3.81-4-6.31-8.41-6.02l-128.02,8.42c-6.08,.4-11.19,5.8-10.48,11.05l25.5,188.53c.52,3.81,4,6.31,8.41,6.02Z"/><path class="cls-11" d="M2259.4,1160.52c-.13-3.52,2.91-6.6,6.43-6.84l21.76-1.46c.68-.05,1.26-.52,1.44-1.18h0c.26-.98-.43-1.95-1.44-2.01l-32.22-2.13c-3.69-.24-5.93-3.37-4.97-6.94h0c.96-3.57,4.76-6.3,8.46-6.05l32.85,2.18c.76,.05,1.45-.44,1.65-1.18l.14-.52c.23-.85-.28-1.73-1.13-1.96l-35.22-9.46c-3.4-.91-5.79-4.53-4.98-7.96,.86-3.64,4.55-5.82,8.13-4.86l35.49,9.53c.85,.23,1.73-.28,1.96-1.13l.45-1.66c.21-.78-.19-1.59-.93-1.9l-31.5-13.05c-3.26-1.35-5.15-5.24-3.9-8.54,1.33-3.49,5.27-5.18,8.69-3.76,0,0,48.44,17.14,56.35,19.23l-14.57-6.81c-10.72,10.05,1.38-3.67,10.2-5.45,9.77-1.97,35.59,21.94,35.59,21.94,1.19,2.06-.03,6.65-1.9,10.11-7.2,38.26-8.63,44.09-11.52,54.23l-39.8-12.14c-11.48-3.5-23.51-4.89-35.49-4.09l-3.01,.2c-3.7,.25-6.9-2.61-7.03-6.34Z"/><polygon class="cls-10" points="2322.12 1093.94 2323.92 1107.98 2308.98 1102.99 2309.18 1092.83 2322.12 1093.94"/><path class="cls-15" d="M2173.92,993.09l128.02-8.42c5.04-.33,9.14,2.66,9.74,7.12l15.42,117.31-3.17-1.1-14.9-115.67c-.42-3.14-3.33-5.16-7.07-4.91l-128.01,8.42c-.74,.05-1.34-.53-1.35-1.28,0-.76,.59-1.41,1.33-1.46Z"/></g><path class="cls-21" d="M2344.76,1097.05s-13.13,34.19-.39,101.41l12.76-48.3,21.27-31.46-33.64-21.66Z"/><path class="cls-15" d="M2604.84,1090.03c-.16,.07-.34,.1-.52,.11-1.96,0-195.49,.8-258.56,8.17-1.41,4.21-7.82,25.9-4.48,65.09,.06,.75-.49,1.42-1.25,1.48-.75,.06-1.41-.49-1.48-1.25-3.78-44.4,4.57-66.17,4.93-67.08l.3-.76,.81-.1c62.33-7.49,257.75-8.28,259.72-8.29,.76,0,1.37,.61,1.37,1.36,0,.57-.35,1.06-.84,1.27Z"/><path class="cls-15" d="M2525.92,1210.88c-79.03,0-175.76-10.2-181.72-10.83-.87-.09-1.51-.88-1.41-1.75,.09-.87,.84-1.51,1.75-1.41,2.16,.23,216.23,22.8,270,1.72,53.14-20.83,56.85-137.92,56.88-139.1,.02-.88,.76-1.59,1.63-1.55,.88,.02,1.57,.75,1.55,1.63-.13,4.91-3.8,120.38-58.91,141.98-17.72,6.95-51.69,9.31-89.78,9.31Z"/><path class="cls-21" d="M2609.45,888.93l-26.46-44.37-46.49,14.04-18.86-20.06s-4.01,18.53-3.89,20.06c.12,1.53,21.24,23.48,23.95,23.25,2.71-.24,71.74,7.08,71.74,7.08Z"/><path class="cls-15" d="M2605.68,1377.64c-.83,0-1.53-.64-1.59-1.48-.06-.88,.6-1.64,1.47-1.7,22.32-1.6,25.39-20.58,30.46-52.02,.91-5.65,1.86-11.5,2.99-17.78,7.56-41.76,10.89-142.94,10.92-143.96,.03-.86,.74-1.54,1.59-1.54,.02,0,.03,0,.05,0,.88,.03,1.57,.76,1.54,1.64-.03,1.02-3.37,102.43-10.97,144.43-1.13,6.25-2.07,12.08-2.98,17.72-5.15,31.86-8.55,52.91-33.38,54.69-.04,0-.08,0-.12,0Z"/><g><path class="cls-22" d="M2463.99,1864.26h147.4v-29.66s-10.72-14.24-27.05-6.97c0,0-24.17,17.5-45.93-3.41l-54.58,23.43s-19.85,6.53-19.85,16.61Z"/><path class="cls-3" d="M2459.58,1864.26h151.81v10.38h-151.81c-1.1,0-1.99-.89-1.99-1.99v-6.4c0-1.1,.89-1.99,1.99-1.99Z"/><path class="cls-14" d="M2522.25,1831.16c4.95,7.72,14.88,23.24,21.19,33.11h10.05c-5.64-8.82-17.47-27.3-23.36-36.49l-7.88,3.38Z"/><path class="cls-14" d="M2527.33,1864.26h10.05c-4.59-7.17-13.54-21.16-19.88-31.06l-7.88,3.38c5.33,8.32,12.7,19.85,17.72,27.68Z"/></g><path class="cls-24" d="M2512.85,776.59c-16.24-4.58-30.57-95.62,49.04-93.01,0,0,3.74,44.28,3.69,46.45-.05,2.17-52.73,46.55-52.73,46.55Z"/><path class="cls-11" d="M2526.44,712.81s-32.39,73.17,3.03,97.1l-6.14,43.61,53.29,.28,16.64-124.14s-11.3-32.54-11.47-31.27-55.33,14.42-55.33,14.42Z"/><path class="cls-4" d="M2532.53,772.6c.22,.03,.44-.1,.51-.31,.09-.25-.04-.52-.29-.61-2.97-1.06-4.39-5.09-4.78-6.39,4.65-1.74,7.7-4.4,9.07-7.91,2.23-5.73-.8-11.58-.93-11.83-.12-.23-.41-.32-.65-.2-.23,.12-.32,.41-.2,.65,.03,.06,2.96,5.73,.88,11.04-1.31,3.34-4.31,5.87-8.92,7.5l-.41,.14,.1,.42c.06,.25,1.48,6.04,5.5,7.48,.03,.01,.07,.02,.1,.02Z"/><path class="cls-4" d="M2527.48,824.76l1.99-14.85s25.3,1.89,42-5.75c0,0-23.59,17.29-43.99,20.6Z"/><path d="M2546,754.27c-.22,1.66,.95,3.2,2.61,3.42,1.66,.22,3.2-.95,3.42-2.61,.22-1.66-.95-3.2-2.61-3.42-1.66-.22-3.2,.95-3.42,2.61Z"/><path d="M2522.34,751.86c-.22,1.66,.95,3.2,2.61,3.42,1.66,.22,3.2-.95,3.42-2.61,.22-1.66-.95-3.2-2.61-3.42-1.66-.22-3.2,.95-3.42,2.61Z"/><path class="cls-17" d="M2519.3,747.86c.26,.09,.55,.05,.79-.13,.06-.04,5.8-4.33,12.15-2.9,.46,.1,.92-.19,1.02-.65,.1-.46-.18-.92-.65-1.02-7.14-1.61-13.31,3.01-13.57,3.2-.38,.29-.45,.82-.16,1.2,.11,.14,.25,.24,.41,.29Z"/><path class="cls-17" d="M2557.44,753.13c.26,.09,.55,.05,.79-.13,.38-.29,.45-.82,.16-1.2-.2-.26-4.91-6.36-12.22-6.71-.47-.02-.87,.34-.9,.81-.02,.47,.34,.87,.82,.9,6.52,.31,10.89,5.97,10.94,6.03,.11,.14,.25,.24,.41,.3Z"/><path class="cls-7" d="M2554.16,765.51c-.35-.11-.17-.66,.18-.54,.35,.11,.17,.66-.18,.54h0Z"/><path class="cls-7" d="M2550.2,765.37c-.35-.11-.17-.66,.18-.54,.35,.11,.17,.66-.18,.54h0Z"/><path class="cls-7" d="M2555.1,773.22c-.35-.11-.17-.66,.18-.54,.35,.11,.17,.66-.18,.54h0Z"/><path class="cls-7" d="M2561.48,768.45c-.35-.11-.17-.66,.18-.54,.35,.11,.17,.66-.18,.54h0Z"/><path class="cls-7" d="M2555.24,767.92c-.35-.11-.17-.66,.18-.54,.35,.11,.17,.66-.18,.54h0Z"/><path class="cls-7" d="M2547.81,770.46c-.35-.11-.17-.66,.18-.54,.35,.11,.17,.66-.18,.54h0Z"/><path class="cls-7" d="M2543.83,764.16l-.08-.03s-.07-.03-.1-.06c-.03-.02-.05-.05-.07-.08-.02-.03-.03-.07-.03-.11,0-.04,0-.08,.01-.11l.03-.07s.06-.07,.11-.1l.07-.02c.05-.01,.1,0,.15,0l.08,.03s.07,.03,.1,.06c.03,.02,.05,.05,.07,.08,.02,.03,.03,.07,.03,.11,0,.04,0,.08-.01,.11l-.03,.07s-.06,.07-.11,.1l-.07,.02c-.05,.01-.1,0-.15,0h0Z"/><path class="cls-7" d="M2537.68,766.59c-.35-.11-.17-.66,.18-.54,.35,.11,.17,.66-.18,.54h0Z"/><path class="cls-7" d="M2538.63,762.36c-.35-.11-.17-.66,.18-.54,.35,.11,.17,.66-.18,.54h0Z"/><path class="cls-7" d="M2532.27,758.4c-.35-.11-.17-.66,.18-.54,.35,.11,.17,.66-.18,.54h0Z"/><path class="cls-7" d="M2527.95,761.25c-.35-.11-.17-.66,.18-.54,.35,.11,.17,.66-.18,.54h0Z"/><path class="cls-7" d="M2522.54,760.09c-.35-.11-.17-.66,.18-.54,.35,.11,.17,.66-.18,.54h0Z"/><path class="cls-7" d="M2520.79,765.13c-.35-.11-.17-.66,.18-.54,.35,.11,.17,.66-.18,.54h0Z"/><path class="cls-7" d="M2516.1,763.68c-.35-.11-.17-.66,.18-.54,.35,.11,.17,.66-.18,.54h0Z"/><path class="cls-7" d="M2518.12,760.51c-.35-.11-.17-.66,.18-.54,.35,.11,.17,.66-.18,.54h0Z"/><path class="cls-7" d="M2523.71,765.2c-.35-.11-.17-.66,.18-.54,.35,.11,.17,.66-.18,.54h0Z"/><path class="cls-7" d="M2521.75,769.81c-.35-.11-.17-.66,.18-.54,.35,.11,.17,.66-.18,.54h0Z"/><path class="cls-7" d="M2555.53,760.26c-.35-.11-.17-.66,.18-.54,.35,.12,.17,.66-.18,.54h0Z"/><path class="cls-7" d="M2541.45,770.86c-.35-.11-.17-.66,.18-.54,.35,.11,.17,.66-.18,.54h0Z"/><path class="cls-9" d="M2547.03,785.74c-.29,.08-19.08,1.72-19.08,1.72,0,0,1.86-7.93,8.84-8.56,6.98-.63,10.23,6.84,10.23,6.84Z"/><path class="cls-25" d="M2525.11,710.7s26.13,43.83,63.84,51.03l-6.23,46.51s26.86-8.75,32.53-36.6c5.67-27.84,5.57-82.5-41.6-87.59-45.6-4.92-48.53,26.64-48.53,26.64Z"/><g><path class="cls-11" d="M2576.72,774.16c-1.1,8.19,4.65,15.71,12.84,16.81s15.71-4.65,16.81-12.84-4.65-15.71-12.84-16.81c-8.19-1.1-15.71,4.65-16.81,12.84Z"/><path class="cls-4" d="M2591.41,785.44c3.11,.42,5.5-1.64,6.5-3.89,1.18-2.65,.61-5.47-1.45-7.16-2.93-2.41-6-1.64-7.71-.86,.85-1.49,1.97-2.52,3.36-3.05,3.12-1.2,6.54,.44,6.58,.46,.24,.12,.52,.02,.64-.22,.12-.24,.02-.52-.22-.64-.16-.08-3.84-1.85-7.35-.49-2.02,.78-3.55,2.44-4.54,4.93l-.63,1.6,1.37-1.04c.17-.13,4.12-3.05,7.89,.06,2.09,1.72,1.94,4.32,1.18,6.03-.8,1.79-2.73,3.73-5.57,3.31-.26-.04-.5,.14-.54,.4-.04,.26,.14,.5,.4,.54,.03,0,.06,0,.09,.01Z"/></g><path class="cls-21" d="M2617.96,748.08c-.08,0-.16,0-.24,0-1.34-.02-2.42-1.13-2.39-2.47,.41-24.46-10.54-41.16-10.65-41.33-.75-1.12-.45-2.63,.67-3.37,1.11-.74,2.62-.45,3.37,.67,.49,.73,11.91,18.06,11.47,44.12-.02,1.26-1,2.29-2.24,2.38Z"/><path class="cls-11" d="M2505.19,838.55s17.59-4.98,33.81-5.18c16.22-.2,53.84,3.38,77.03,10.37,0,0-37.56,22.79-72.47,19.6-34.92-3.19-38.36-24.79-38.36-24.79Z"/><path class="cls-15" d="M2407.13,1068.54c-.6,.25-1.32,.04-1.68-.53l-9.71-15.41,.1-.53,26.29-136.75c.15-1.23,2.29-17.14,15.1-35.03,12.01-16.78,36.09-38.41,82.57-46.21,.74-.12,1.45,.38,1.57,1.12,.13,.74-.38,1.45-1.12,1.57-45.48,7.63-68.99,28.68-80.71,44.98-12.7,17.67-14.68,33.77-14.7,33.93l-.02,.1-26.2,136.27,9.13,14.49c.4,.64,.21,1.48-.43,1.89-.07,.04-.13,.08-.2,.11Z"/><g class="cls-26"><rect class="cls-6" x="2181.42" y="1017.02" width="115.62" height="20.82" transform="translate(-66.72 160.04) rotate(-4.03)"/></g><g class="cls-26"><rect class="cls-6" x="2184.5" y="1050.45" width="115.62" height="6.05" transform="translate(-68.54 160.32) rotate(-4.03)"/></g></g><rect class="cls-15" x="346.29" y="1871.75" width="2486.09" height="9.82"/></g></svg>