<?xml version="1.0" encoding="UTF-8"?><svg id="Camada_1" xmlns="http://www.w3.org/2000/svg" viewBox="0 0 444 400"><defs><style>.cls-1{fill:#085ca5;fill-rule:evenodd;}</style></defs><path class="cls-1" d="M169.56,223.8h4.93v31.49c-.61-3.26-2.46-22.44-2.22-28.57-.62-.63-2.71-2.91-2.71-2.91m-36.91-33.64h0l-5.27-5.37c-7.02,.09-29.64-2.3-36.9-3.57v40.5c36.3,3.59,55.35,4.49,76.61,3.82h.35l-34.79-35.38h0Zm.26-11.29h40.55v-39.29h-40.55v39.28h0Zm-31.45,2.37c2.69,.23,26.41,2.3,28,2.3l37.57,38.2h48.28v-40.5H101.46Zm68.28,46.52s-21.66,1.48-40.08-.19c.37,22.4,3.08,33.9,3.52,36.36h40.26c-1.92-11.77-3.44-30.79-3.7-36.16"/><path class="cls-1" d="M270.62,216.05h3.19v20.36c-.39-2.11-1.59-14.51-1.44-18.48-.4-.41-1.75-1.88-1.75-1.88m-23.87-21.75h0l-3.41-3.47c-4.54,.06-19.17-1.49-23.86-2.31v26.19c23.47,2.32,35.79,2.9,49.54,2.47h.23l-22.5-22.88h0Zm.17-7.3h26.22v-25.41h-26.22v25.4h0Zm-20.34,1.53c1.74,.15,17.08,1.49,18.11,1.49l24.3,24.7h31.22v-26.19h-73.62Zm44.16,30.08s-14.01,.96-25.92-.12c.24,14.49,1.99,21.92,2.28,23.51h26.04c-1.24-7.61-2.22-19.91-2.39-23.38"/><path class="cls-1" d="M212.29,156.59h2.26v14.45c-.28-1.5-1.13-10.3-1.02-13.11-.28-.29-1.24-1.34-1.24-1.34m-16.94-15.44h0l-2.42-2.46c-3.22,.04-13.6-1.06-16.93-1.64v18.58c16.66,1.65,25.4,2.06,35.15,1.75h.16l-15.96-16.23h0Zm.12-5.18h18.61v-18.03h-18.61v18.02h0Zm-14.43,1.09c1.23,.11,12.12,1.06,12.85,1.06l17.24,17.53h22.15v-18.58h-52.24Zm31.33,21.35s-9.94,.68-18.39-.09c.17,10.28,1.41,15.56,1.62,16.68h18.47c-.88-5.4-1.58-14.13-1.7-16.59"/><path class="cls-1" d="M212.29,265.59h2.26v14.45c-.28-1.5-1.13-10.3-1.02-13.11-.28-.29-1.24-1.34-1.24-1.34m-16.94-15.44h0l-2.42-2.46c-3.22,.04-13.6-1.06-16.93-1.64v18.58c16.66,1.65,25.4,2.06,35.15,1.75h.16l-15.96-16.23h0Zm.12-5.18h18.61v-18.03h-18.61v18.02h0Zm-14.43,1.09c1.23,.11,12.12,1.06,12.85,1.06l17.24,17.53h22.15v-18.58h-52.24Zm31.33,21.35s-9.94,.68-18.39-.09c.17,10.28,1.41,15.56,1.62,16.68h18.47c-.88-5.4-1.58-14.13-1.7-16.59"/><path class="cls-1" d="M265.61,146.28h1.66v10.6c-.21-1.1-.83-7.55-.75-9.61-.21-.21-.91-.98-.91-.98m-12.42-11.32h0l-1.77-1.81c-2.36,.03-9.97-.77-12.42-1.2v13.63c12.21,1.21,18.62,1.51,25.78,1.29h.12l-11.71-11.9h0Zm.09-3.8h13.64v-13.22h-13.64v13.22h0Zm-10.58,.8c.91,.08,8.89,.77,9.42,.77l12.64,12.85h16.24v-13.63h-38.31Zm22.97,15.65s-7.29,.5-13.49-.06c.12,7.54,1.04,11.41,1.18,12.23h13.55c-.65-3.96-1.16-10.36-1.24-12.17"/><path class="cls-1" d="M332.56,208.49h1.91v12.17c-.24-1.26-.95-8.67-.86-11.04-.24-.24-1.05-1.12-1.05-1.12m-14.27-13h0l-2.04-2.08c-2.71,.03-11.46-.89-14.26-1.38v15.65c14.03,1.39,21.39,1.74,29.61,1.48h.14l-13.45-13.67h0Zm.1-4.36h15.67v-15.19h-15.67v15.18h0Zm-12.16,.92c1.04,.09,10.21,.89,10.82,.89l14.52,14.76h18.66v-15.65h-44Zm26.39,17.98s-8.37,.57-15.49-.07c.14,8.66,1.19,13.1,1.36,14.05h15.56c-.74-4.55-1.33-11.9-1.43-13.98"/><path class="cls-1" d="M296.41,241.65h1.27v8.12c-.16-.84-.63-5.79-.57-7.37-.16-.16-.7-.75-.7-.75m-9.52-8.67h0l-1.36-1.38c-1.81,.02-7.64-.59-9.51-.92v10.44c9.36,.93,14.27,1.16,19.75,.98h.09l-8.97-9.12h0Zm.07-2.91h10.45v-10.13h-10.45v10.13h0Zm-8.11,.61c.69,.06,6.81,.59,7.22,.59l9.69,9.85h12.45v-10.44h-29.35Zm17.6,11.99s-5.58,.38-10.33-.05c.1,5.77,.79,8.74,.91,9.37h10.38c-.49-3.03-.89-7.94-.95-9.32"/><path class="cls-1" d="M294.68,272.42h.79v5.04c-.1-.52-.39-3.59-.36-4.57-.1-.1-.43-.47-.43-.47m-5.91-5.38h0l-.84-.86c-1.12,.01-4.74-.37-5.91-.57v6.48c5.81,.57,8.86,.72,12.26,.61h.06l-5.57-5.66h0Zm.04-1.81h6.49v-6.29h-6.49v6.29h0Zm-5.03,.38c.43,.04,4.23,.37,4.48,.37l6.01,6.11h7.73v-6.48h-18.22Zm10.93,7.45s-3.47,.24-6.42-.03c.06,3.59,.49,5.43,.56,5.82h6.44c-.31-1.88-.55-4.93-.59-5.79"/><path class="cls-1" d="M294.68,140.42h.79v5.04c-.1-.52-.39-3.59-.36-4.57-.1-.1-.43-.47-.43-.47m-5.91-5.38h0l-.84-.86c-1.12,.01-4.74-.37-5.91-.57v6.48c5.81,.57,8.86,.72,12.26,.61h.06l-5.57-5.66h0Zm.04-1.81h6.49v-6.29h-6.49v6.29h0Zm-5.03,.38c.43,.04,4.23,.37,4.48,.37l6.01,6.11h7.73v-6.48h-18.22Zm10.93,7.45s-3.47,.24-6.42-.03c.06,3.59,.49,5.43,.56,5.82h6.44c-.31-1.88-.55-4.93-.59-5.79"/><path class="cls-1" d="M235.21,178.12h.95v6.05c-.12-.63-.47-4.31-.43-5.49-.12-.12-.52-.56-.52-.56m-7.09-6.46h0l-1.01-1.03c-1.35,.02-5.69-.44-7.09-.69v7.78c6.97,.69,10.63,.86,14.72,.73h.07l-6.68-6.8h0Zm.05-2.17h7.79v-7.55h-7.79v7.55h0Zm-6.04,.46c.52,.04,5.07,.44,5.38,.44l7.22,7.34h9.27v-7.78h-21.87Zm13.12,8.94s-4.16,.28-7.7-.04c.07,4.3,.59,6.51,.68,6.98h7.73c-.37-2.26-.66-5.91-.71-6.95"/><path class="cls-1" d="M235.21,234.12h.95v6.05c-.12-.63-.47-4.31-.43-5.49-.12-.12-.52-.56-.52-.56m-7.09-6.46h0l-1.01-1.03c-1.35,.02-5.69-.44-7.09-.69v7.78c6.97,.69,10.63,.86,14.72,.73h.07l-6.68-6.8h0Zm.05-2.17h7.79v-7.55h-7.79v7.55h0Zm-6.04,.46c.52,.04,5.07,.44,5.38,.44l7.22,7.34h9.27v-7.78h-21.87Zm13.12,8.94s-4.16,.28-7.7-.04c.07,4.3,.59,6.51,.68,6.98h7.73c-.37-2.26-.66-5.91-.71-6.95"/><path class="cls-1" d="M325.14,168.72h.63v4.03c-.08-.42-.31-2.87-.28-3.66-.08-.08-.35-.37-.35-.37m-4.73-4.31h0l-.67-.69c-.9,.01-3.79-.29-4.72-.46v5.18c4.65,.46,7.09,.57,9.81,.49h.04l-4.45-4.53h0Zm.03-1.45h5.19v-5.03h-5.19v5.03h0Zm-4.03,.3c.34,.03,3.38,.29,3.58,.29l4.81,4.89h6.18v-5.18h-14.57Zm8.74,5.96s-2.77,.19-5.13-.02c.05,2.87,.39,4.34,.45,4.65h5.15c-.25-1.51-.44-3.94-.47-4.63"/><path class="cls-1" d="M230.14,129.72h.63v4.03c-.08-.42-.31-2.87-.28-3.66-.08-.08-.35-.37-.35-.37m-4.73-4.31h0l-.67-.69c-.9,.01-3.79-.29-4.72-.46v5.18c4.65,.46,7.09,.57,9.81,.49h.04l-4.45-4.53h0Zm.03-1.45h5.19v-5.03h-5.19v5.03h0Zm-4.03,.3c.34,.03,3.38,.29,3.58,.29l4.81,4.89h6.18v-5.18h-14.57Zm8.74,5.96s-2.77,.19-5.13-.02c.05,2.87,.39,4.34,.45,4.65h5.15c-.25-1.51-.44-3.94-.47-4.63"/><path class="cls-1" d="M230.14,277.72h.63v4.03c-.08-.42-.31-2.87-.28-3.66-.08-.08-.35-.37-.35-.37m-4.73-4.31h0l-.67-.69c-.9,.01-3.79-.29-4.72-.46v5.18c4.65,.46,7.09,.57,9.81,.49h.04l-4.45-4.53h0Zm.03-1.45h5.19v-5.03h-5.19v5.03h0Zm-4.03,.3c.34,.03,3.38,.29,3.58,.29l4.81,4.89h6.18v-5.18h-14.57Zm8.74,5.96s-2.77,.19-5.13-.02c.05,2.87,.39,4.34,.45,4.65h5.15c-.25-1.51-.44-3.94-.47-4.63"/><path class="cls-1" d="M186.14,277.72h.63v4.03c-.08-.42-.31-2.87-.28-3.66-.08-.08-.35-.37-.35-.37m-4.73-4.31h0l-.67-.69c-.9,.01-3.79-.29-4.72-.46v5.18c4.65,.46,7.09,.57,9.81,.49h.04l-4.45-4.53h0Zm.03-1.45h5.19v-5.03h-5.19v5.03h0Zm-4.03,.3c.34,.03,3.38,.29,3.58,.29l4.81,4.89h6.18v-5.18h-14.57Zm8.74,5.96s-2.77,.19-5.13-.02c.05,2.87,.39,4.34,.45,4.65h5.15c-.25-1.51-.44-3.94-.47-4.63"/><path class="cls-1" d="M186.14,234.72h.63v4.03c-.08-.42-.31-2.87-.28-3.66-.08-.08-.35-.37-.35-.37m-4.73-4.31h0l-.67-.69c-.9,.01-3.79-.29-4.72-.46v5.18c4.65,.46,7.09,.57,9.81,.49h.04l-4.45-4.53h0Zm.03-1.45h5.19v-5.03h-5.19v5.03h0Zm-4.03,.3c.34,.03,3.38,.29,3.58,.29l4.81,4.89h6.18v-5.18h-14.57Zm8.74,5.96s-2.77,.19-5.13-.02c.05,2.87,.39,4.34,.45,4.65h5.15c-.25-1.51-.44-3.94-.47-4.63"/><path class="cls-1" d="M186.14,172.72h.63v4.03c-.08-.42-.31-2.87-.28-3.66-.08-.08-.35-.37-.35-.37m-4.73-4.31h0l-.67-.69c-.9,.01-3.79-.29-4.72-.46v5.18c4.65,.46,7.09,.57,9.81,.49h.04l-4.45-4.53h0Zm.03-1.45h5.19v-5.03h-5.19v5.03h0Zm-4.03,.3c.34,.03,3.38,.29,3.58,.29l4.81,4.89h6.18v-5.18h-14.57Zm8.74,5.96s-2.77,.19-5.13-.02c.05,2.87,.39,4.34,.45,4.65h5.15c-.25-1.51-.44-3.94-.47-4.63"/><path class="cls-1" d="M221.71,166h.35v2.27c-.04-.23-.18-1.61-.16-2.06-.04-.05-.19-.21-.19-.21m-2.66-2.42h0l-.38-.39c-.51,0-2.13-.17-2.65-.26v2.91c2.61,.26,3.98,.32,5.51,.27h.03l-2.5-2.55h0Zm.02-.81h2.92v-2.83h-2.92v2.83h0Zm-2.26,.17c.19,.02,1.9,.17,2.01,.17l2.7,2.75h3.47v-2.91h-8.19Zm4.91,3.35s-1.56,.11-2.88-.01c.03,1.61,.22,2.44,.25,2.62h2.9c-.14-.85-.25-2.22-.27-2.6"/><path class="cls-1" d="M242.71,166h.35v2.27c-.04-.23-.18-1.61-.16-2.06-.04-.05-.19-.21-.19-.21m-2.66-2.42h0l-.38-.39c-.51,0-2.13-.17-2.65-.26v2.91c2.61,.26,3.98,.32,5.51,.27h.03l-2.5-2.55h0Zm.02-.81h2.92v-2.83h-2.92v2.83h0Zm-2.26,.17c.19,.02,1.9,.17,2.01,.17l2.7,2.75h3.47v-2.91h-8.19Zm4.91,3.35s-1.56,.11-2.88-.01c.03,1.61,.22,2.44,.25,2.62h2.9c-.14-.85-.25-2.22-.27-2.6"/><path class="cls-1" d="M221.71,184h.35v2.27c-.04-.23-.18-1.61-.16-2.06-.04-.05-.19-.21-.19-.21m-2.66-2.42h0l-.38-.39c-.51,0-2.13-.17-2.65-.26v2.91c2.61,.26,3.98,.32,5.51,.27h.03l-2.5-2.55h0Zm.02-.81h2.92v-2.83h-2.92v2.83h0Zm-2.26,.17c.19,.02,1.9,.17,2.01,.17l2.7,2.75h3.47v-2.91h-8.19Zm4.91,3.35s-1.56,.11-2.88-.01c.03,1.61,.22,2.44,.25,2.62h2.9c-.14-.85-.25-2.22-.27-2.6"/><path class="cls-1" d="M242.71,184h.35v2.27c-.04-.23-.18-1.61-.16-2.06-.04-.05-.19-.21-.19-.21m-2.66-2.42h0l-.38-.39c-.51,0-2.13-.17-2.65-.26v2.91c2.61,.26,3.98,.32,5.51,.27h.03l-2.5-2.55h0Zm.02-.81h2.92v-2.83h-2.92v2.83h0Zm-2.26,.17c.19,.02,1.9,.17,2.01,.17l2.7,2.75h3.47v-2.91h-8.19Zm4.91,3.35s-1.56,.11-2.88-.01c.03,1.61,.22,2.44,.25,2.62h2.9c-.14-.85-.25-2.22-.27-2.6"/><path class="cls-1" d="M221.71,223h.35v2.27c-.04-.23-.18-1.61-.16-2.06-.04-.05-.19-.21-.19-.21m-2.66-2.42h0l-.38-.39c-.51,0-2.13-.17-2.65-.26v2.91c2.61,.26,3.98,.32,5.51,.27h.03l-2.5-2.55h0Zm.02-.81h2.92v-2.83h-2.92v2.83h0Zm-2.26,.17c.19,.02,1.9,.17,2.01,.17l2.7,2.75h3.47v-2.91h-8.19Zm4.91,3.35s-1.56,.11-2.88-.01c.03,1.61,.22,2.44,.25,2.62h2.9c-.14-.85-.25-2.22-.27-2.6"/><path class="cls-1" d="M242.71,223h.35v2.27c-.04-.23-.18-1.61-.16-2.06-.04-.05-.19-.21-.19-.21m-2.66-2.42h0l-.38-.39c-.51,0-2.13-.17-2.65-.26v2.91c2.61,.26,3.98,.32,5.51,.27h.03l-2.5-2.55h0Zm.02-.81h2.92v-2.83h-2.92v2.83h0Zm-2.26,.17c.19,.02,1.9,.17,2.01,.17l2.7,2.75h3.47v-2.91h-8.19Zm4.91,3.35s-1.56,.11-2.88-.01c.03,1.61,.22,2.44,.25,2.62h2.9c-.14-.85-.25-2.22-.27-2.6"/><path class="cls-1" d="M221.71,241h.35v2.27c-.04-.23-.18-1.61-.16-2.06-.04-.05-.19-.21-.19-.21m-2.66-2.42h0l-.38-.39c-.51,0-2.13-.17-2.65-.26v2.91c2.61,.26,3.98,.32,5.51,.27h.03l-2.5-2.55h0Zm.02-.81h2.92v-2.83h-2.92v2.83h0Zm-2.26,.17c.19,.02,1.9,.17,2.01,.17l2.7,2.75h3.47v-2.91h-8.19Zm4.91,3.35s-1.56,.11-2.88-.01c.03,1.61,.22,2.44,.25,2.62h2.9c-.14-.85-.25-2.22-.27-2.6"/><path class="cls-1" d="M242.71,241h.35v2.27c-.04-.23-.18-1.61-.16-2.06-.04-.05-.19-.21-.19-.21m-2.66-2.42h0l-.38-.39c-.51,0-2.13-.17-2.65-.26v2.91c2.61,.26,3.98,.32,5.51,.27h.03l-2.5-2.55h0Zm.02-.81h2.92v-2.83h-2.92v2.83h0Zm-2.26,.17c.19,.02,1.9,.17,2.01,.17l2.7,2.75h3.47v-2.91h-8.19Zm4.91,3.35s-1.56,.11-2.88-.01c.03,1.61,.22,2.44,.25,2.62h2.9c-.14-.85-.25-2.22-.27-2.6"/><path class="cls-1" d="M186.14,129.72h.63v4.03c-.08-.42-.31-2.87-.28-3.66-.08-.08-.35-.37-.35-.37m-4.73-4.31h0l-.67-.69c-.9,.01-3.79-.29-4.72-.46v5.18c4.65,.46,7.09,.57,9.81,.49h.04l-4.45-4.53h0Zm.03-1.45h5.19v-5.03h-5.19v5.03h0Zm-4.03,.3c.34,.03,3.38,.29,3.58,.29l4.81,4.89h6.18v-5.18h-14.57Zm8.74,5.96s-2.77,.19-5.13-.02c.05,2.87,.39,4.34,.45,4.65h5.15c-.25-1.51-.44-3.94-.47-4.63"/><path class="cls-1" d="M310.14,150.72h.63v4.03c-.08-.42-.31-2.87-.28-3.66-.08-.08-.35-.37-.35-.37m-4.73-4.31h0l-.67-.69c-.9,.01-3.79-.29-4.72-.46v5.18c4.65,.46,7.09,.57,9.81,.49h.04l-4.45-4.53h0Zm.03-1.45h5.19v-5.03h-5.19v5.03h0Zm-4.03,.3c.34,.03,3.38,.29,3.58,.29l4.81,4.89h6.18v-5.18h-14.57Zm8.74,5.96s-2.77,.19-5.13-.02c.05,2.87,.39,4.34,.45,4.65h5.15c-.25-1.51-.44-3.94-.47-4.63"/><path class="cls-1" d="M310.14,185.72h.63v4.03c-.08-.42-.31-2.87-.28-3.66-.08-.08-.35-.37-.35-.37m-4.73-4.31h0l-.67-.69c-.9,.01-3.79-.29-4.72-.46v5.18c4.65,.46,7.09,.57,9.81,.49h.04l-4.45-4.53h0Zm.03-1.45h5.19v-5.03h-5.19v5.03h0Zm-4.03,.3c.34,.03,3.38,.29,3.58,.29l4.81,4.89h6.18v-5.18h-14.57Zm8.74,5.96s-2.77,.19-5.13-.02c.05,2.87,.39,4.34,.45,4.65h5.15c-.25-1.51-.44-3.94-.47-4.63"/><path class="cls-1" d="M325.14,239.72h.63v4.03c-.08-.42-.31-2.87-.28-3.66-.08-.08-.35-.37-.35-.37m-4.73-4.31h0l-.67-.69c-.9,.01-3.79-.29-4.72-.46v5.18c4.65,.46,7.09,.57,9.81,.49h.04l-4.45-4.53h0Zm.03-1.45h5.19v-5.03h-5.19v5.03h0Zm-4.03,.3c.34,.03,3.38,.29,3.58,.29l4.81,4.89h6.18v-5.18h-14.57Zm8.74,5.96s-2.77,.19-5.13-.02c.05,2.87,.39,4.34,.45,4.65h5.15c-.25-1.51-.44-3.94-.47-4.63"/><path class="cls-1" d="M310.14,221.72h.63v4.03c-.08-.42-.31-2.87-.28-3.66-.08-.08-.35-.37-.35-.37m-4.73-4.31h0l-.67-.69c-.9,.01-3.79-.29-4.72-.46v5.18c4.65,.46,7.09,.57,9.81,.49h.04l-4.45-4.53h0Zm.03-1.45h5.19v-5.03h-5.19v5.03h0Zm-4.03,.3c.34,.03,3.38,.29,3.58,.29l4.81,4.89h6.18v-5.18h-14.57Zm8.74,5.96s-2.77,.19-5.13-.02c.05,2.87,.39,4.34,.45,4.65h5.15c-.25-1.51-.44-3.94-.47-4.63"/><path class="cls-1" d="M310.14,256.72h.63v4.03c-.08-.42-.31-2.87-.28-3.66-.08-.08-.35-.37-.35-.37m-4.73-4.31h0l-.67-.69c-.9,.01-3.79-.29-4.72-.46v5.18c4.65,.46,7.09,.57,9.81,.49h.04l-4.45-4.53h0Zm.03-1.45h5.19v-5.03h-5.19v5.03h0Zm-4.03,.3c.34,.03,3.38,.29,3.58,.29l4.81,4.89h6.18v-5.18h-14.57Zm8.74,5.96s-2.77,.19-5.13-.02c.05,2.87,.39,4.34,.45,4.65h5.15c-.25-1.51-.44-3.94-.47-4.63"/><path class="cls-1" d="M296.41,172.65h1.27v8.12c-.16-.84-.63-5.79-.57-7.37-.16-.16-.7-.75-.7-.75m-9.52-8.67h0l-1.36-1.38c-1.81,.02-7.64-.59-9.51-.92v10.44c9.36,.93,14.27,1.16,19.75,.98h.09l-8.97-9.12h0Zm.07-2.91h10.45v-10.13h-10.45v10.13h0Zm-8.11,.61c.69,.06,6.81,.59,7.22,.59l9.69,9.85h12.45v-10.44h-29.35Zm17.6,11.99s-5.58,.38-10.33-.05c.1,5.77,.79,8.74,.91,9.37h10.38c-.49-3.03-.89-7.94-.95-9.32"/><path class="cls-1" d="M265.61,275.2h1.66v10.6c-.21-1.1-.83-7.55-.75-9.61-.21-.21-.91-.98-.91-.98m-12.42-11.32h0l-1.77-1.81c-2.36,.03-9.97-.77-12.42-1.2v13.63c12.21,1.21,18.62,1.51,25.78,1.29h.12l-11.71-11.9h0Zm.09-3.8h13.64v-13.22h-13.64v13.22h0Zm-10.58,.8c.91,.08,8.89,.77,9.42,.77l12.64,12.85h16.24v-13.63h-38.31Zm22.97,15.65s-7.29,.5-13.49-.06c.12,7.54,1.04,11.41,1.18,12.23h13.55c-.65-3.96-1.16-10.36-1.24-12.17"/></svg>